<svg width="2400" height="1600" viewBox="0 0 2400 1600" fill="none" xmlns="http://www.w3.org/2000/svg">
  <defs>
    <linearGradient id="g0" x1="0" y1="0" x2="2400" y2="1600" gradientUnits="userSpaceOnUse">
      <stop stop-color="#114147"/>
      <stop offset="0.5" stop-color="#255E60"/>
      <stop offset="1" stop-color="#0B2E32"/>
    </linearGradient>
    <radialGradient id="g1" cx="0" cy="0" r="1" gradientUnits="userSpaceOnUse" gradientTransform="translate(1700 520) rotate(135) scale(1200 900)">
      <stop stop-color="#937A63" stop-opacity="0.55"/>
      <stop offset="1" stop-color="#937A63" stop-opacity="0"/>
    </radialGradient>
    <radialGradient id="g2" cx="0" cy="0" r="1" gradientUnits="userSpaceOnUse" gradientTransform="translate(620 1020) rotate(-40) scale(1200 920)">
      <stop stop-color="#FFFFFF" stop-opacity="0.12"/>
      <stop offset="1" stop-color="#FFFFFF" stop-opacity="0"/>
    </radialGradient>
    <filter id="blur" x="-40" y="-40" width="2480" height="1680" filterUnits="userSpaceOnUse" color-interpolation-filters="sRGB">
      <feGaussianBlur stdDeviation="14"/>
    </filter>
  </defs>

  <rect width="2400" height="1600" fill="url(#g0)"/>
  <g filter="url(#blur)">
    <path d="M-90 1120C420 860 780 840 1180 980C1540 1105 1910 1210 2490 960V1720H-90V1120Z" fill="white" fill-opacity="0.06"/>
    <path d="M-220 640C380 480 760 520 1030 640C1350 785 1730 960 2580 520V-80H-220V640Z" fill="white" fill-opacity="0.05"/>
  </g>
  <rect width="2400" height="1600" fill="url(#g1)"/>
  <rect width="2400" height="1600" fill="url(#g2)"/>

  <g opacity="0.18">
    <path d="M0 1160C340 900 640 820 940 900C1230 980 1520 1200 1920 1150C2140 1120 2280 1020 2400 900" stroke="#937A63" stroke-width="3"/>
    <path d="M0 1230C320 980 650 920 980 1010C1260 1090 1560 1310 1960 1260C2170 1230 2300 1130 2400 990" stroke="#937A63" stroke-width="2"/>
  </g>
</svg>

